<svg xmlns="http://www.w3.org/2000/svg" viewBox="0 0 640 640" width="640" height="640" role="img" aria-label="DouroRisk 3D"><title>DouroRisk 3D</title><g transform="translate(99.84 10.00) scale(0.86000)"><circle cx="316.00" cy="64.00" r="8.00" fill="#B92D1A"/><circle cx="302.34" cy="88.62" r="8.00" fill="#CB3D1B"/><path d="M284.35 113.35 Q290.47 113.11 296.58 113.35" stroke="#DC4E1C" stroke-width="16.0" stroke-linecap="round" fill="none"/><path d="M264.80 138.16 Q280.51 137.53 296.22 138.16" stroke="#E6681D" stroke-width="16.0" stroke-linecap="round" fill="none"/><path d="M242.40 163.07 Q272.46 161.85 302.53 163.07" stroke="#EF811F" stroke-width="16.0" stroke-linecap="round" fill="none"/><path d="M217.58 188.06 Q266.26 186.09 314.94 188.06" stroke="#F29826" stroke-width="16.0" stroke-linecap="round" fill="none"/><path d="M191.18 213.12 Q261.75 210.26 332.32 213.12" stroke="#F1AD2E" stroke-width="16.0" stroke-linecap="round" fill="none"/><path d="M164.32 238.22 Q258.70 234.40 353.08 238.22" stroke="#ECBC36" stroke-width="16.0" stroke-linecap="round" fill="none"/><path d="M138.35 263.32 Q256.86 258.52 375.37 263.32" stroke="#D5BF38" stroke-width="16.0" stroke-linecap="round" fill="none"/><path d="M114.67 288.40 Q255.93 282.68 397.19 288.40" stroke="#B2B734" stroke-width="16.0" stroke-linecap="round" fill="none"/><path d="M98.23 313.34 Q255.63 306.97 413.03 313.34" stroke="#92AB30" stroke-width="16.0" stroke-linecap="round" fill="none"/><path d="M97.69 337.97 Q255.69 331.57 413.69 337.97" stroke="#729C2C" stroke-width="16.0" stroke-linecap="round" fill="none"/><path d="M118.92 362.16 Q255.88 356.61 392.84 362.16" stroke="#588B29" stroke-width="16.0" stroke-linecap="round" fill="none"/><path d="M177.20 385.60 Q256.00 382.40 334.80 385.60" stroke="#3F7A26" stroke-width="16.0" stroke-linecap="round" fill="none"/><path d="M104.00 422.15 C130.60 414.17 153.40 414.17 180.00 422.15 C206.60 430.13 229.40 430.13 256.00 422.15 C282.60 414.17 305.40 414.17 332.00 422.15 C358.60 430.13 381.40 430.13 408.00 422.15" stroke="#1F5C99" stroke-width="16.0" stroke-linecap="round" fill="none"/></g><path d="M45.47200000000001 560.0Q42.71200000000001 560.0 40.918000000000006 558.206Q39.12400000000001 556.412 39.12400000000001 553.652V501.948Q39.12400000000001 499.188 40.918000000000006 497.394Q42.71200000000001 495.6 45.47200000000001 495.6H64.24000000000001Q71.96800000000002 495.6 77.71800000000002 499.648Q83.46800000000002 503.696 86.68800000000002 510.964Q89.90800000000002 518.232 89.90800000000002 527.8Q89.90800000000002 537.276 86.55000000000001 544.544Q83.19200000000001 551.812 77.07400000000001 555.906Q70.95600000000002 560.0 62.58400000000001 560.0ZM51.82000000000001 548.5H62.492000000000004Q67.27600000000001 548.5 70.542 546.0160000000001Q73.808 543.532 75.464 538.886Q77.12 534.24 77.12 527.8Q77.12 521.36 75.51 516.7139999999999Q73.9 512.068 70.91000000000001 509.538Q67.92000000000002 507.008 63.68800000000001 507.008H51.82000000000001ZM120.45200000000001 561.38Q113.552 561.38 108.308 558.114Q103.06400000000001 554.848 100.166 549.098Q97.268 543.348 97.268 536.172Q97.268 529.088 100.166 523.476Q103.06400000000001 517.864 108.308 514.552Q113.552 511.24 120.45200000000001 511.24Q127.44400000000002 511.24 132.68800000000002 514.552Q137.93200000000002 517.864 140.83 523.476Q143.728 529.088 143.728 536.172Q143.728 543.348 140.83 549.098Q137.93200000000002 554.848 132.68800000000002 558.114Q127.44400000000002 561.38 120.45200000000001 561.38ZM120.45200000000001 550.156Q125.512 550.156 128.318 546.614Q131.12400000000002 543.072 131.12400000000002 536.172Q131.12400000000002 529.548 128.318 525.96Q125.512 522.372 120.45200000000001 522.372Q115.39200000000001 522.372 112.632 525.96Q109.87200000000001 529.548 109.87200000000001 536.172Q109.87200000000001 543.072 112.632 546.614Q115.39200000000001 550.156 120.45200000000001 550.156ZM170.592 560.92Q164.79600000000002 560.92 160.978 558.758Q157.16000000000003 556.596 155.274 552.548Q153.388 548.5 153.388 542.704V517.312Q153.388 514.828 155.18200000000002 513.034Q156.97600000000003 511.24 159.46 511.24Q162.036 511.24 163.784 513.034Q165.532 514.828 165.532 517.312V540.68Q165.532 545.74 168.01600000000002 547.5799999999999Q170.5 549.42 174.45600000000002 549.42Q177.584 549.42 179.792 548.04Q182.0 546.66 183.19600000000003 544.406Q184.39200000000002 542.152 184.39200000000002 539.484V517.312Q184.39200000000002 514.828 186.18600000000004 513.034Q187.98000000000002 511.24 190.556 511.24Q193.132 511.24 194.88 513.034Q196.62800000000001 514.828 196.62800000000001 517.312V554.756Q196.62800000000001 557.24 194.88 559.034Q193.132 560.828 190.556 560.828Q187.98000000000002 560.828 186.18600000000004 559.034Q184.39200000000002 557.24 184.39200000000002 554.756V548.684L186.876 549.88Q183.93200000000002 555.4 180.02200000000002 558.16Q176.11200000000002 560.92 170.592 560.92ZM215.58 560.92Q213.096 560.92 211.30200000000002 559.126Q209.508 557.332 209.508 554.756V517.772Q209.508 515.288 211.348 513.494Q213.18800000000002 511.7 215.85600000000002 511.7Q218.616 511.7 220.18 513.54Q221.744 515.38 221.744 517.864V522.096L219.996 521.0840000000001Q221.008 518.876 222.66400000000002 516.576Q224.32000000000002 514.276 226.71200000000002 512.758Q229.104 511.24 231.95600000000002 511.24Q234.9 511.24 236.69400000000002 512.85Q238.488 514.46 238.488 517.312Q238.488 519.796 236.602 521.59Q234.716 523.384 231.77200000000002 523.384Q228.276 523.384 226.068 524.672Q223.86 525.96 222.80200000000002 528.2139999999999Q221.744 530.468 221.744 533.504V554.756Q221.744 557.332 219.95 559.126Q218.156 560.92 215.58 560.92ZM267.192 561.38Q260.29200000000003 561.38 255.048 558.114Q249.804 554.848 246.906 549.098Q244.008 543.348 244.008 536.172Q244.008 529.088 246.906 523.476Q249.804 517.864 255.048 514.552Q260.29200000000003 511.24 267.192 511.24Q274.184 511.24 279.428 514.552Q284.672 517.864 287.57000000000005 523.476Q290.468 529.088 290.468 536.172Q290.468 543.348 287.57000000000005 549.098Q284.672 554.848 279.428 558.114Q274.184 561.38 267.192 561.38ZM267.192 550.156Q272.252 550.156 275.058 546.614Q277.86400000000003 543.072 277.86400000000003 536.172Q277.86400000000003 529.548 275.058 525.96Q272.252 522.372 267.192 522.372Q262.132 522.372 259.372 525.96Q256.612 529.548 256.612 536.172Q256.612 543.072 259.372 546.614Q262.132 550.156 267.192 550.156ZM307.85600000000005 560.92Q305.096 560.92 303.302 559.126Q301.50800000000004 557.332 301.50800000000004 554.572V501.948Q301.50800000000004 499.188 303.302 497.394Q305.096 495.6 307.85600000000005 495.6H314.204V554.572Q314.204 557.332 312.41 559.126Q310.61600000000004 560.92 307.85600000000005 560.92ZM311.536 535.068V523.66H328.004Q331.59200000000004 523.66 333.80000000000007 521.406Q336.00800000000004 519.152 336.00800000000004 515.656Q336.00800000000004 511.332 333.29400000000004 509.16999999999996Q330.58000000000004 507.008 327.26800000000003 507.008H311.536V495.6H328.18800000000005Q334.168 495.6 338.814 498.084Q343.46000000000004 500.568 346.22 505.03Q348.98 509.492 348.98 515.38Q348.98 521.268 346.312 525.73Q343.644 530.192 339.136 532.63Q334.62800000000004 535.068 329.108 535.068ZM344.38 560.92Q342.632 560.92 341.16 560.0Q339.68800000000005 559.08 338.952 557.516L326.16400000000004 530.744L338.216 528.168L349.808 551.996Q350.452 553.284 350.452 554.756Q350.452 557.332 348.704 559.126Q346.956 560.92 344.38 560.92ZM367.288 560.92Q364.71200000000005 560.92 362.918 559.0799999999999Q361.124 557.24 361.124 554.756V517.772Q361.124 515.288 362.918 513.494Q364.71200000000005 511.7 367.288 511.7Q369.77200000000005 511.7 371.56600000000003 513.494Q373.36 515.288 373.36 517.772V554.756Q373.36 557.24 371.56600000000003 559.0799999999999Q369.77200000000005 560.92 367.288 560.92ZM367.196 507.008Q364.34400000000005 507.008 362.504 505.168Q360.66400000000004 503.328 360.66400000000004 499.924Q360.66400000000004 496.612 362.504 494.726Q364.34400000000005 492.84000000000003 367.196 492.84000000000003Q370.232 492.84000000000003 372.072 494.726Q373.91200000000003 496.612 373.91200000000003 499.924Q373.91200000000003 503.328 372.072 505.168Q370.232 507.008 367.196 507.008ZM403.536 561.656Q397.372 561.656 392.86400000000003 559.7239999999999Q388.356 557.792 385.964 554.94Q383.572 552.088 383.48 549.512Q383.48 547.488 384.952 545.694Q386.42400000000004 543.9 389.276 543.9Q391.392 543.9 392.68 544.7280000000001Q393.968 545.556 394.52 546.292Q396.82 548.868 399.212 550.11Q401.604 551.352 404.456 551.352Q407.492 551.352 408.872 550.156Q410.252 548.96 410.252 547.212Q410.252 545.74 409.148 544.682Q408.044 543.624 406.02 542.75Q403.996 541.876 401.052 540.956Q398.016 539.944 395.11800000000005 538.794Q392.22 537.644 389.966 535.942Q387.712 534.24 386.424 531.802Q385.136 529.364 385.136 525.868Q385.136 521.636 387.39 518.278Q389.644 514.92 393.692 512.9879999999999Q397.74 511.056 402.98400000000004 511.056Q408.136 511.056 411.954 512.758Q415.772 514.46 417.98 517.082Q420.188 519.704 420.188 522.648Q420.188 524.856 418.99199999999996 526.328Q417.796 527.8 415.312 527.8Q413.196 527.8 411.77 526.88Q410.344 525.96 409.516 525.04Q408.872 524.212 407.99800000000005 523.384Q407.124 522.556 405.882 521.9580000000001Q404.64 521.36 402.616 521.36Q399.856 521.36 398.568 522.4639999999999Q397.28000000000003 523.568 397.28000000000003 525.132Q397.28000000000003 526.788 398.52200000000005 527.8Q399.764 528.812 402.294 529.6859999999999Q404.824 530.56 408.688 531.94Q411.908 533.044 414.438 534.3779999999999Q416.968 535.712 418.76200000000006 537.3679999999999Q420.55600000000004 539.024 421.52200000000005 541.14Q422.488 543.256 422.488 546.108Q422.488 550.524 420.23400000000004 554.066Q417.98 557.608 413.74800000000005 559.632Q409.516 561.656 403.536 561.656ZM438.68 560.92Q436.196 560.92 434.40200000000004 559.126Q432.608 557.332 432.608 554.756V498.912Q432.608 496.428 434.40200000000004 494.634Q436.196 492.84000000000003 438.68 492.84000000000003Q441.25600000000003 492.84000000000003 443.05 494.634Q444.844 496.428 444.844 498.912V554.756Q444.844 557.332 443.05 559.126Q441.25600000000003 560.92 438.68 560.92ZM440.244 531.94 463.336 513.172Q464.992 511.79200000000003 467.29200000000003 511.79200000000003Q469.868 511.79200000000003 471.616 513.54Q473.36400000000003 515.288 473.36400000000003 517.772Q473.36400000000003 520.716 471.156 522.556L440.244 547.672ZM468.30400000000003 560.92Q466.832 560.92 465.498 560.184Q464.164 559.448 463.336 558.252L447.788 535.62L457.172 528.26L473.272 551.26Q474.468 552.824 474.468 554.756Q474.468 557.332 472.674 559.126Q470.88 560.92 468.30400000000003 560.92Z" fill="#121417"/><path d="M518.904 561.38Q513.936 561.38 509.658 559.954Q505.38000000000005 558.528 502.11400000000003 556.182Q498.848 553.836 497.00800000000004 551.1220000000001Q495.16800000000006 548.408 495.16800000000006 545.74Q495.16800000000006 542.98 496.87000000000006 541.4159999999999Q498.57200000000006 539.852 500.872 539.852Q502.71200000000005 539.852 503.95400000000006 540.864Q505.196 541.876 506.11600000000004 543.532Q507.77200000000005 546.66 510.80800000000005 548.4079999999999Q513.844 550.156 517.524 550.156Q521.296 550.156 524.056 548.5Q526.816 546.844 528.426 544.038Q530.0360000000001 541.232 530.0360000000001 537.736Q530.0360000000001 534.148 528.472 531.3420000000001Q526.908 528.5360000000001 524.194 526.926Q521.48 525.316 518.076 525.316Q515.6840000000001 525.316 514.258 526.0060000000001Q512.832 526.696 511.636 527.386Q510.44000000000005 528.076 508.78400000000005 528.076Q506.76000000000005 528.076 505.5640000000001 526.742Q504.36800000000005 525.408 504.36800000000005 523.844Q504.36800000000005 522.556 505.2420000000001 521.406Q506.11600000000004 520.256 507.22 519.336L523.7800000000001 503.88L524.24 506.824L505.01200000000006 507.1Q501.884 507.1 500.41200000000003 505.30600000000004Q498.94000000000005 503.512 498.94000000000005 501.58Q498.94000000000005 499.096 500.73400000000004 497.348Q502.528 495.6 505.01200000000006 495.6H532.336Q535.2800000000001 495.6 536.568 497.072Q537.856 498.544 537.856 500.568Q537.856 502.31600000000003 536.752 504.294Q535.648 506.272 532.98 508.94Q530.312 511.608 525.528 515.656L519.1800000000001 519.52L521.1120000000001 516.852Q526.264 516.668 530.22 518.37Q534.176 520.072 536.844 523.0160000000001Q539.5120000000001 525.96 540.892 529.87Q542.272 533.78 542.272 538.012Q542.272 544.728 539.2360000000001 549.972Q536.2 555.216 530.956 558.298Q525.712 561.38 518.904 561.38ZM560.12 560.0Q557.36 560.0 555.566 558.206Q553.772 556.412 553.772 553.652V501.948Q553.772 499.188 555.566 497.394Q557.36 495.6 560.12 495.6H578.888Q586.616 495.6 592.366 499.648Q598.116 503.696 601.336 510.964Q604.556 518.232 604.556 527.8Q604.556 537.276 601.1980000000001 544.544Q597.84 551.812 591.722 555.906Q585.604 560.0 577.2320000000001 560.0ZM566.4680000000001 548.5H577.14Q581.924 548.5 585.19 546.0160000000001Q588.456 543.532 590.1120000000001 538.886Q591.768 534.24 591.768 527.8Q591.768 521.36 590.158 516.7139999999999Q588.548 512.068 585.558 509.538Q582.568 507.008 578.336 507.008H566.4680000000001Z" fill="#E0521C"/><path d="M163.52525 612.0Q160.98375000000001 612.0 159.79925000000003 610.8154999999999Q158.61475000000002 609.631 158.61475000000002 607.0895V601.8225Q158.61475000000002 599.258 159.805 598.07925Q160.99525 596.9005 163.51375000000002 596.9235H166.28525000000002Q168.83825000000002 596.9235 170.017 598.1022499999999Q171.19575 599.281 171.19575 601.834V607.0895Q171.19575 609.631 170.017 610.8154999999999Q168.83825000000002 612.0 166.28525000000002 612.0ZM163.52525 610.551H166.28525000000002Q167.58475 610.551 168.33800000000002 610.22325Q169.09125 609.8955 169.419 609.1365000000001Q169.74675000000002 608.3775 169.74675000000002 607.0895V601.834Q169.74675000000002 600.546 169.419 599.787Q169.09125 599.028 168.33800000000002 598.70025Q167.58475 598.3725 166.28525000000002 598.3725H163.51375000000002Q162.22575 598.361 161.47250000000003 598.683Q160.71925000000002 599.005 160.3915 599.764Q160.06375 600.523 160.06375 601.8225V607.0895Q160.06375 608.3775 160.3915 609.1365000000001Q160.71925000000002 609.8955 161.47825 610.22325Q162.23725000000002 610.551 163.52525 610.551ZM183.35125000000002 612.0Q182.62675000000002 612.0 182.62675000000002 611.2755V597.648Q182.62675000000002 596.9235 183.35125000000002 596.9235Q183.73075000000003 596.9235 184.08725 597.349L193.66675 609.6655H193.32175V597.648Q193.32175 596.9235 194.04625000000001 596.9235Q194.77075000000002 596.9235 194.77075000000002 597.648V611.2755Q194.77075000000002 612.0 194.04625000000001 612.0Q193.65525000000002 612.0 193.31025000000002 611.5745L183.73075000000003 599.258H184.07575000000003V611.2755Q184.07575000000003 612.0 183.35125000000002 612.0ZM207.31725000000003 612.0Q206.59275000000002 612.0 206.59275000000002 611.2755V597.648Q206.59275000000002 596.9235 207.31725000000003 596.9235H212.86025000000004Q215.76975000000002 596.9235 217.11525 598.269Q218.46075000000002 599.6145 218.46075000000002 602.524V606.3995Q218.46075000000002 609.2975 217.12100000000004 610.6487500000001Q215.78125000000003 612.0 212.86025000000004 612.0ZM208.04175000000004 610.551H212.86025000000004Q214.40125000000003 610.551 215.30975000000004 610.15425Q216.21825000000004 609.7575 216.61500000000004 608.84325Q217.01175000000003 607.929 217.01175000000003 606.3995V602.524Q217.01175000000003 600.9945 216.61500000000004 600.08025Q216.21825000000004 599.166 215.30975000000004 598.76925Q214.40125000000003 598.3725 212.86025000000004 598.3725H208.04175000000004ZM230.61625000000004 612.0Q229.89175000000003 612.0 229.89175000000003 611.2755V597.648Q229.89175000000003 596.9235 230.61625000000004 596.9235H239.11475000000004Q239.83925000000005 596.9235 239.83925000000005 597.648Q239.83925000000005 598.3725 239.11475000000004 598.3725H231.34075000000004V603.651H236.40075000000004Q237.12525000000002 603.651 237.12525000000002 604.3755Q237.12525000000002 605.1 236.40075000000004 605.1H231.34075000000004V610.551H239.11475000000004Q239.83925000000005 610.551 239.83925000000005 611.2755Q239.83925000000005 612.0 239.11475000000004 612.0ZM264.81725 612.0Q264.09275 612.0 264.09275 611.2755V597.648Q264.09275 596.9235 264.81725 596.9235H270.19925Q272.21175000000005 596.9235 273.25825000000003 597.97Q274.30475 599.0165 274.30475 601.029V601.719Q274.30475 603.72 273.25825000000003 604.77225Q272.21175000000005 605.8245 270.19925 605.8245H265.54175000000004V611.2755Q265.54175000000004 612.0 264.81725 612.0ZM265.54175000000004 604.3755H270.19925Q271.61375000000004 604.3755 272.2347500000001 603.74875Q272.85575000000006 603.122 272.85575000000006 601.719V601.029Q272.85575000000006 599.626 272.2347500000001 598.99925Q271.61375000000004 598.3725 270.19925 598.3725H265.54175000000004ZM289.26625 612.0Q286.72475000000003 612.0 285.54025 610.8154999999999Q284.35575 609.631 284.35575 607.0895V601.8225Q284.35575 599.258 285.54600000000005 598.07925Q286.73625000000004 596.9005 289.25475 596.9235H292.02625Q294.57925 596.9235 295.75800000000004 598.1022499999999Q296.93675 599.281 296.93675 601.834V607.0895Q296.93675 609.631 295.75800000000004 610.8154999999999Q294.57925 612.0 292.02625 612.0ZM289.26625 610.551H292.02625Q293.32575 610.551 294.07900000000006 610.22325Q294.83225000000004 609.8955 295.16 609.1365000000001Q295.48775 608.3775 295.48775 607.0895V601.834Q295.48775 600.546 295.16 599.787Q294.83225000000004 599.028 294.07900000000006 598.70025Q293.32575 598.3725 292.02625 598.3725H289.25475Q287.96675000000005 598.361 287.21350000000007 598.683Q286.46025000000003 599.005 286.13250000000005 599.764Q285.80475 600.523 285.80475 601.8225V607.0895Q285.80475 608.3775 286.13250000000005 609.1365000000001Q286.46025000000003 609.8955 287.21925 610.22325Q287.97825 610.551 289.26625 610.551ZM309.09225 612.0Q308.36775 612.0 308.36775 611.2755V597.648Q308.36775 596.9235 309.09225 596.9235H314.63525Q317.54475 596.9235 318.89025000000004 598.269Q320.23575 599.6145 320.23575 602.524V606.3995Q320.23575 609.2975 318.89599999999996 610.6487500000001Q317.55625 612.0 314.63525 612.0ZM309.81675 610.551H314.63525Q316.17625 610.551 317.08475 610.15425Q317.99325 609.7575 318.39 608.84325Q318.78675 607.929 318.78675 606.3995V602.524Q318.78675 600.9945 318.39 600.08025Q317.99325 599.166 317.08475 598.76925Q316.17625 598.3725 314.63525 598.3725H309.81675ZM332.39124999999996 612.0Q331.66675 612.0 331.66675 611.2755V597.648Q331.66675 596.9235 332.39124999999996 596.9235H340.88975Q341.61424999999997 596.9235 341.61424999999997 597.648Q341.61424999999997 598.3725 340.88975 598.3725H333.11575V603.651H338.17575Q338.90024999999997 603.651 338.90024999999997 604.3755Q338.90024999999997 605.1 338.17575 605.1H333.11575V610.551H340.88975Q341.61424999999997 610.551 341.61424999999997 611.2755Q341.61424999999997 612.0 340.88975 612.0ZM364.84424999999993 611.931Q364.17724999999996 611.6435 364.44174999999996 610.9765L370.06524999999993 597.487Q370.30674999999997 596.9235 370.88174999999995 596.9235H370.93924999999996Q371.50274999999993 596.935 371.72124999999994 597.487L377.37924999999996 610.9765Q377.6667499999999 611.6435 376.98824999999994 611.931Q376.32124999999996 612.1955 376.04524999999995 611.54L374.61924999999997 608.1245H367.20174999999995L365.78725 611.54Q365.52275 612.207 364.84424999999993 611.931ZM367.78824999999995 606.6755H374.00974999999994L370.88174999999995 599.212ZM397.78024999999997 612.0345Q397.49274999999994 612.207 397.2339999999999 612.14375Q396.97524999999996 612.0805 396.79124999999993 611.8045L393.08824999999996 605.8245H389.20124999999996V611.2755Q389.20124999999996 612.0 388.4767499999999 612.0Q387.75224999999995 612.0 387.75224999999995 611.2755V597.648Q387.75224999999995 596.9235 388.4767499999999 596.9235H393.85874999999993Q395.87125 596.9235 396.91774999999996 597.97Q397.96424999999994 599.0165 397.96424999999994 601.029V601.719Q397.96424999999994 603.4785 397.15349999999995 604.502Q396.34274999999997 605.5255 394.76724999999993 605.7555L398.03324999999995 611.0455Q398.38974999999994 611.655 397.78024999999997 612.0345ZM389.20124999999996 604.3755H393.85874999999993Q395.27324999999996 604.3755 395.89424999999994 603.74875Q396.5152499999999 603.122 396.5152499999999 601.719V601.029Q396.5152499999999 599.626 395.89424999999994 598.99925Q395.27324999999996 598.3725 393.85874999999993 598.3725H389.20124999999996ZM409.7172499999999 612.0Q408.99274999999994 612.0 408.99274999999994 611.2755V597.648Q408.99274999999994 596.9235 409.7172499999999 596.9235H415.2602499999999Q418.16974999999996 596.9235 419.5152499999999 598.269Q420.86074999999994 599.6145 420.86074999999994 602.524V606.3995Q420.86074999999994 609.2975 419.52099999999996 610.6487500000001Q418.18125 612.0 415.2602499999999 612.0ZM410.44174999999996 610.551H415.2602499999999Q416.8012499999999 610.551 417.70974999999993 610.15425Q418.61824999999993 609.7575 419.01499999999993 608.84325Q419.4117499999999 607.929 419.4117499999999 606.3995V602.524Q419.4117499999999 600.9945 419.01499999999993 600.08025Q418.61824999999993 599.166 417.70974999999993 598.76925Q416.8012499999999 598.3725 415.2602499999999 598.3725H410.44174999999996ZM433.0162499999999 612.0Q432.2917499999999 612.0 432.2917499999999 611.2755V597.648Q432.2917499999999 596.9235 433.0162499999999 596.9235H441.51474999999994Q442.2392499999999 596.9235 442.2392499999999 597.648Q442.2392499999999 598.3725 441.51474999999994 598.3725H433.74074999999993V603.651H438.80074999999994Q439.5252499999999 603.651 439.5252499999999 604.3755Q439.5252499999999 605.1 438.80074999999994 605.1H433.74074999999993V610.551H441.51474999999994Q442.2392499999999 610.551 442.2392499999999 611.2755Q442.2392499999999 612.0 441.51474999999994 612.0ZM462.9047499999999 612.0345Q462.6172499999999 612.207 462.35849999999994 612.14375Q462.0997499999999 612.0805 461.9157499999999 611.8045L458.2127499999999 605.8245H454.3257499999999V611.2755Q454.3257499999999 612.0 453.6012499999999 612.0Q452.8767499999999 612.0 452.8767499999999 611.2755V597.648Q452.8767499999999 596.9235 453.6012499999999 596.9235H458.9832499999999Q460.99574999999993 596.9235 462.0422499999999 597.97Q463.0887499999999 599.0165 463.0887499999999 601.029V601.719Q463.0887499999999 603.4785 462.2779999999999 604.502Q461.4672499999999 605.5255 459.8917499999999 605.7555L463.1577499999999 611.0455Q463.5142499999999 611.655 462.9047499999999 612.0345ZM454.3257499999999 604.3755H458.9832499999999Q460.3977499999999 604.3755 461.01874999999995 603.74875Q461.63974999999994 603.122 461.63974999999994 601.719V601.029Q461.63974999999994 599.626 461.01874999999995 598.99925Q460.3977499999999 598.3725 458.9832499999999 598.3725H454.3257499999999ZM477.1187499999999 608.5845Q476.3942499999999 608.5845 476.3942499999999 607.86Q476.3942499999999 606.618 476.77949999999987 605.86475Q477.1647499999999 605.1115 477.71674999999993 604.6745Q478.2687499999999 604.2375 478.7747499999999 603.927Q479.2807499999999 603.605 479.66599999999994 603.2945Q480.0512499999999 602.984 480.2582499999999 602.50675Q480.4652499999999 602.0295 480.4652499999999 601.213Q480.4652499999999 599.7525 479.91324999999995 599.2005Q479.3612499999999 598.6485 477.9007499999999 598.6485H476.3597499999999Q474.9107499999999 598.6485 474.3529999999999 599.20625Q473.7952499999999 599.764 473.7952499999999 601.213Q473.7952499999999 601.9375 473.0707499999999 601.9375Q472.3462499999999 601.9375 472.3462499999999 601.213Q472.3462499999999 599.166 473.33524999999986 598.1827499999999Q474.3242499999999 597.1995 476.3597499999999 597.1995H477.9007499999999Q479.9707499999999 597.1995 480.9424999999999 598.17125Q481.9142499999999 599.143 481.9142499999999 601.213Q481.9142499999999 602.455 481.5347499999999 603.2025000000001Q481.1552499999999 603.95 480.5974999999999 604.39275Q480.0397499999999 604.8355 479.5337499999999 605.146Q479.0277499999999 605.468 478.6482499999999 605.77275Q478.2687499999999 606.0775 478.0559999999999 606.55475Q477.8432499999999 607.032 477.8432499999999 607.86Q477.8432499999999 608.5845 477.1187499999999 608.5845ZM476.9002499999999 612.0Q476.1527499999999 612.0 476.1527499999999 611.241V610.758Q476.1527499999999 610.022 476.9002499999999 610.022H477.3717499999999Q478.0962499999999 610.022 478.0962499999999 610.758V611.241Q478.0962499999999 612.0 477.3717499999999 612.0Z" fill="#4A4A4A"/></svg>
